# xmcd CD database file
#
# Track frame offsets:
#	150
#	21173
#	34008
#	47181
#	59153
#	77846
#
# Disc length: 1326 seconds
#
# Revision: 0
# Processed by: cddbd v1.5.1PL2 Copyright (c) Steve Scherf et al.
# Submitted via: CDex 1.51
#
DISCID=4d052c06
DTITLE=DEMOLITION - MOB OF WOLVES
DYEAR=2005
DGENRE=Hardcore
TTITLE0=KARMA
TTITLE1=Jack the ripper ?
TTITLE2=Soul Stealer
TTITLE3=AS LONG AS I LIVE
TTITLE4=LIVE and LET DIE
TTITLE5=MOB OF WOLVES
EXTD=YEAR: 2005
EXTT0=
EXTT1=
EXTT2=
EXTT3=
EXTT4=
EXTT5=
PLAYORDER=
